/* XPM */
static char *ef15ac57235d47b59778e0715d90d0d0[] = {
/* columns rows colors chars-per-pixel */
"64 64 256 2 ",
"   c #9D965C",
".  c #9A8A57",
"X  c #A18C5B",
"o  c #A6985B",
"O  c #B59C59",
"+  c #A9934A",
"@  c #B8A65A",
"#  c #B6A84F",
"$  c #988966",
"%  c #9D9568",
"&  c #9D9677",
"*  c #958B71",
"=  c #A58E64",
"-  c #AB9C64",
";  c #A59A6D",
":  c #AB9B6C",
">  c #A69667",
",  c #B29D6A",
"<  c #B59C65",
"1  c #A48F72",
"2  c #A29272",
"3  c #AB9C73",
"4  c #A49A7B",
"5  c #AB9C7C",
"6  c #A79875",
"7  c #B29D73",
"8  c #B39D7D",
"9  c #ACA469",
"0  c #BBAC64",
"q  c #B5A36B",
"w  c #BBAB6B",
"e  c #B9A668",
"r  c #BDB469",
"t  c #ABA378",
"y  c #B3A373",
"u  c #BCAB74",
"i  c #B4A47C",
"p  c #BAA47C",
"a  c #B5AA7B",
"s  c #BCAC7A",
"d  c #B9A674",
"f  c #BBB279",
"g  c #9CA07F",
"h  c #C7A959",
"j  c #CEB258",
"k  c #C3AA65",
"l  c #C3AC6B",
"z  c #C7A966",
"x  c #C8B36A",
"c  c #D5B769",
"v  c #C3AD73",
"b  c #C6AA78",
"n  c #C5B374",
"m  c #C4B37C",
"M  c #CBB37A",
"N  c #CAB776",
"B  c #D5B977",
"V  c #D0AD65",
"C  c #C59F72",
"Z  c #D5C47D",
"A  c #9D9582",
"S  c #AC9E83",
"D  c #A69C86",
"F  c #B39E85",
"G  c #A49E92",
"H  c #AAA488",
"J  c #B3A583",
"K  c #B5AB85",
"L  c #BBAC83",
"P  c #B5AC8C",
"I  c #BBAC8C",
"U  c #B6A588",
"Y  c #BCB28D",
"T  c #BAB485",
"R  c #ACA896",
"E  c #B3AC93",
"W  c #BBAD92",
"Q  c #B7AC9A",
"!  c #BDB395",
"~  c #BCB49A",
"^  c #B7B49A",
"/  c #AFB593",
"(  c #B2ADA2",
")  c #BDBBAC",
"_  c #B9B6A6",
"`  c #BCBBB4",
"'  c #BABAB9",
"]  c #A6ABA6",
"[  c #C1AD83",
"{  c #C9AE86",
"}  c #C4B382",
"|  c #CCBB83",
" . c #C3B38B",
".. c #CBB58C",
"X. c #CCBB8B",
"o. c #C8B887",
"O. c #D3BB8C",
"+. c #D4B987",
"@. c #C3B494",
"#. c #C3BB94",
"$. c #CCBC93",
"%. c #C3B59C",
"&. c #C3BA9D",
"*. c #CBBC9B",
"=. c #CAB695",
"-. c #D3BC94",
";. c #C4A994",
":. c #C4BCA4",
">. c #CBBDA3",
",. c #C3BCAC",
"<. c #C7B7A8",
"1. c #D6BAA9",
"2. c #C6BDB5",
"3. c #CDB4AB",
"4. c #BFC1B9",
"5. c #BBCEA8",
"6. c #BCC399",
"7. c #CAC18A",
"8. c #D4C38B",
"9. c #D8C588",
"0. c #CDC294",
"q. c #CCC49C",
"w. c #C7C69B",
"e. c #D5C395",
"r. c #D3C39B",
"t. c #DBC99C",
"y. c #D9C898",
"u. c #DED29A",
"i. c #E7D39B",
"p. c #E5CA92",
"a. c #CCC3A4",
"s. c #CCC3AB",
"d. c #C9C6A9",
"f. c #D4C5AB",
"g. c #D4CAAB",
"h. c #DBCCAC",
"j. c #D8C7A4",
"k. c #DCD2AD",
"l. c #D6D4A9",
"z. c #C4C3B4",
"x. c #CCC5B3",
"c. c #C3C3BC",
"v. c #CBC6BB",
"b. c #CCCBBC",
"n. c #CBCBB5",
"m. c #D4CCB4",
"M. c #DBCCB4",
"N. c #D4CDBB",
"B. c #DCCCBB",
"V. c #D7C5B6",
"C. c #DCD3B4",
"Z. c #DCD3BC",
"A. c #DDDABC",
"S. c #D8D6B7",
"D. c #C9D6B5",
"F. c #E3CDAB",
"G. c #E3CBA4",
"H. c #E2D4AC",
"J. c #E8D7A8",
"K. c #F4DBA8",
"L. c #E4CBB5",
"P. c #E3D4B4",
"I. c #E4DAB4",
"U. c #EBDBB4",
"Y. c #E3D4BB",
"T. c #EBD4BC",
"R. c #E4DBBC",
"E. c #ECDCBC",
"W. c #EAD4B5",
"Q. c #F2DCBC",
"!. c #F4DAB7",
"~. c #DBE2B7",
"^. c #ECE1BD",
"/. c #E8E3B9",
"(. c #F3E3BB",
"). c #FBE4BB",
"_. c #F7E6B6",
"`. c #F1E7AD",
"'. c #CABEC8",
"]. c #BFC4C7",
"[. c #CCCBC3",
"{. c #CCCBCA",
"}. c #C4C6C2",
"|. c #D2CDC2",
" X c #D6CCC8",
".X c #CED1CB",
"XX c #CCD4C5",
"oX c #D4D4C4",
"OX c #DBD4C3",
"+X c #DCDBC4",
"@X c #D4D3CC",
"#X c #DAD5CA",
"$X c #DCDBCC",
"%X c #D4DAC9",
"&X c #CDD5D4",
"*X c #CDD8D5",
"=X c #D5D6D3",
"-X c #DAD5D4",
";X c #D4DAD5",
":X c #DCDBD3",
">X c #D5DCDB",
",X c #DBDCDA",
"<X c #D4D5DA",
"1X c #D3CAD4",
"2X c #E4CEC7",
"3X c #E4D4C3",
"4X c #E3DCC4",
"5X c #EBDCC3",
"6X c #E4D5CB",
"7X c #E4DBCB",
"8X c #ECDCCC",
"9X c #EAD4C7",
"0X c #F2DDC3",
"qX c #F2DECB",
"wX c #F5D9C4",
"eX c #E4DDD3",
"rX c #EADCD4",
"tX c #E2DDDB",
"yX c #EBDDDC",
"uX c #E5D6D5",
"iX c #F3DDD3",
"pX c #DCE3CB",
"aX c #DCE2D4",
"sX c #DDE2DB",
"dX c #DAE5DC",
"fX c #E4E3C4",
"gX c #ECE3C4",
"hX c #E5E2CC",
"jX c #EBE3CB",
"kX c #EAEBCA",
"lX c #F3E3C3",
"zX c #FBEAC3",
"xX c #F3E3CA",
"cX c #F2EACB",
"vX c #F8E8C6",
"bX c #E4E2D4",
"nX c #EBE3D4",
"mX c #E3E3DC",
"MX c #EBE4DB",
"NX c #E8EAD8",
"BX c #F4E4D3",
"VX c #F3EAD3",
"CX c #F7E7D8",
"ZX c #EFF2D3",
"AX c #D8DBE2",
"SX c #E6DDE5",
"DX c #F5DDE0",
"FX c #DCE4E4",
"GX c #E4E3E2",
"HX c #EBE4E2",
"JX c #E5EAE3",
"KX c #EBEBE3",
"LX c #E7E8EA",
"PX c #F2E4E3",
"IX c #F2EAE7",
"UX c #EFEDEE",
/* pixels */
"5.pX%Xn.rXPXrXnXmXbXaXpXoXn.OXnX5XQ.8.r m T <.2.C.I.6X6X6X7X9XhXNX+XeX7XNXS.$Xm.W U D H p { F.E.Y.Q _ =X*X*X*X*X;X%X+Xn._ ` c.] ",
"NXNXpXOX X2XuXnX:XNXNXpXpX$X7X5X1.*.u | u.H.uXBXE./.3XnXBXY.f.s.d.5.OX7XpXD.3XZ.5XR.s.~ p , I &.9X7Xb.4.*XFX*X*X*XpXz._ v.oXXX;X",
"aXpXNXIX8X#XnXMXmXmXdXaXNXnXZ.>.*.-.y.U._.(.BX9X7.7.%.6XyX<.K 9 a / B.6Xl./ >.s.M.xXhXfXU.0.E S ~ OXbX@XAX>X*X*X;Xc.b.+X$X$X$X.X",
"kXhXkXVX6X|.#XmXKXsXsXNXbXN.>.@.L.Q.zX_.k.I.rX2.f w i 2XyX<.f # - f 2X6X#.9 3 ! N.7Xm.m./.U.Z.x.H P n.mX*X*XAX*X.X_ c.$XXXXXaXb.",
"A.ZXVXnXHXSX<XGXdXdXNXNXC.>.f.T.wXwXh.$.[ a.iX2Xf r s P.DX1.x # # u 9X8X| O ; &.nX6X~ H / d.7X7XB.W R c..XFXAX<X{.=X#X#XbX$Xz.z.",
"T I.5X7XIXSX1X<XdXJXkXA.m.Y.wXCXiXL.I p u $.uXiXm 0 w e.uXL.h + # M 9X8Xn @ : a.8XN.W 5 t / N.OXcXE.:._ .X>X<XAX].{.=X#XoXb._ H ",
"J.(.cXMXIXLXSXLXKXNX+XS.E.vXwXL.iXT...T n } B.iXu.w r 7.wXT.z h h n 0XT.0 @ i m.jX>.J 4 D / +XR.&.E.4Xm.@X<X<XAXAX1X-XmX|.%XpX^ ",
" .&.Y.nXeXtXLXFXmXsXMXVXqXh.+...Q.xXj.s 0 r V.iXE.d 0 B Q.wXz O @ B qXY.@ k L 4X4XI > K / D.E.g.; K S.jXoX-XGX<XAX,X=X@X#X5.D * ",
"iXM.f.cXkX~.z.aXGXLXPXyX1.-.M z y.U.lXy.0 r $.5XqX$.e l Q.!.+.k e X.gXA.w w h.3Xk.a - 7 V.OXh.u ; 6 i m.7XmX1X,X{.' <X[.bXR &.g.",
"3.9X8X/.A.~.S.pXGXSXIXPXL.{ l l M i.).G.n 0 m I.qX1.e l wXT.O.b d r./.l.q v B.rXq.y o -.OX7XX.q y % J a.3X7XrX-X<X'.{.c.b.n.d.P ",
"3.9XcXk.l.S.hXNXHXuXuXiX!.O.n k k | E.Q.9.r w J.wXL.{ p wXQ.-...L l.fXw.9  .uXuXo.9 < J.9XL.d o : ; q.h.Y.m.eX-XAX{.] {.b.4XP $ ",
"F.!.R.g.A.A.VXhXVXV.*.L.).!.9.0 0 l F.lXJ.N 0 e.lX5X..8 9XwXt. .! R.kX#.: *.iX6XL O { W.qXQ , O : $.(.W.*.I x.7X-X-X' [.R d.~ ^ ",
"K._.I.OXPXtXIX8Xh.o.v B K.).!.8.v q ..U.(.u.r m 0XqX*.J Y.qXG.} ! fX0XY t g.rXV.t q t.E.h.6 - d $./.J...5 1 4 N.oXsX[.c.R N.R.! ",
"9.J.R.7XIXSXIX9X..n x c B J.lXE.O.d b y.(.U.o.s T.jXh.U f.wXF.p Y E.Q.I K S.rX3.; X.A.fX;.5 t Y /.U.} 7 3 7 2 E oX%X%X%X[.x.a.$ ",
"N J.C.nXHXSXMX5Xy.B Z c x O.W.xXW.-.n N J.).t.T M.5XJ.T >.5XU.a Y E.T.I P /.3XQ K l./.m.5 J #.k./.$.i 3 p s T ! +X%XaXsX2.& P 1 ",
"7.J.g.VXMXyXBXvX).i.B B v M j.U.qXF.| u t.vXP.*.1.R.(.$.*.E.(.J @.gXQ.I ! fX3XE *.C.kX^ 4 U P./.j.: 3 7 3 p H.I.pXN.oX$XoX_ ,.$ ",
"g.f.CXxXgXR.*.I._._.`.p.{ M B 8.).0Xe.L  .U.zXq.Y gX^.q.@.E.R.I >.cXC.J S.gXs.P f.4XC.P D h.lXP.9 q 3 J %.T.Q.k.Y H Z.6X-Xv._ D ",
"d.S.8XVXlXt.m M 9.J.zX0XW.O.n w y.lXE.$.K q.lXR.! I.gXl.! gX5X~ s.jXY.H S.cX~ ^ fXfX^ 4 >.jXP.@.q , L 1.5XE.$.a 9 : >.8X7X#X_ H ",
"5.pXkXVXW.C V h x 9.W.BXqXY.-.b ..E.vXh.T @.R.^.a.g.kXC.! kX5X~ m.8XZ.~ R.jXP d.fXA.E P E.gX@.5 F ;.V.iX+X6.9   o o 3 V.OXaXc./ ",
"D.ZXNXZXL.C B c V x  .f.8XxXJ.e.L -.U.lXh.#.g.gXS.>.gXfX~ 4X5X:.B.nXm.x.4X+X^ Z.A.a.! h.kXf.S 5 ;.L.CXL./ ; % o o - 8 L.OXpX%X] ",
"4XcXyXMXDXwXF.p.Z k k B i.`.`.K... .h.vXE.#.&.gXfX:.4XVX) 4X7X,.OXVX,.oXhXn.x.fXZ.E ~ cXR.W J @.W.K.H...7 : - > s a.OXeXtX{.-X[.",
"xXxXBX3XiXCXE.!.J.9.N x M 8.K._.W...=.P.lXC.>.3XjXm.OXNXx.OXhXv.OXNX,.#XhX,.OXpXm.~ C.ZX*.S *.W._.8.a 7 8 L ..y.U.Y.Z.2. X XtX X",
"CXCXlXe.O.t.H.lXlX^.H.e.M b p.K.zXF.*.*.E.cXg.x.hX$Xb.mX#X#XmXoX:XbXv.$XeX) bX+X:.N.gXC.W @.P.!.8.u : J <.1.Z.5XH.-.i 2 ~ OX:X@X",
"MXCXP.o.x n B 8.^.xXjXE.j...M +.!.lXW.@.f.VXZ.x.hXMXn.bXeX@XMX#XMXeX#XmXeXc.NX#X_ hX4X~ ~ E.gXj.d 7 U %.Y.rXZ.a.: > X $ D S.[.&X",
"sXmXC. .M V V V M -.wXCXxXH.-.} $.lXlXf.&.5XnXOXoXmXeXbXmXtXmXmXmXsX:XmXmX@XmX) OX+XN.~ M.lXW.5 A W V.E./.w.i X X = . = * b.=X>X",
"JXNXOXq.O.B c B B B -.F.lXvXC.0.@.-.(.CXs.m.hXbX#XmXmX,XJXmXmXsXmX,X,XtXmX:XmXc.eX$X_ 3X5XZ.S W 1.9XlXl.m 9 - = X > 2 S G V.{.=X",
"nXVXCXVXvXQ.G.i.p.c z x 8./.lXwXg.J P.5XVX_ $XMXmXmXJXmXmXJXmXsXmXtXmXtXmX,XmX:XmX2.v.Z.VXH H s.2X3Xh.f o o o , =.a.Y.jXuXyXtX-X",
"BX5XY.U.lX).Q.zX_.K.9.x v X.Y.iXgXP.! m.fX7Xb.MXMXtXGXmX,XJXtXsXmX,XGXtXGXGXmXmX:Xb.$XnXQ Q C.5XhX~ ; > d } G.Q.Q.W.P.h.g.2.-XtX",
"xXI.9.Z Z 9.j.T.^.cX(.`.u.0.1.1.xXlXC.~ 4XbXNXbXmXaXmXsX,XHXNX:XmXtXGXmX,XSX<XmX,X:XeXoXR Z.VXC.I S S >.4XeX6XuXF.+.k o 9 g D.*X",
"jXH.9.N c V b  .f.C./.(.(.^.L.3.s.gX4XhX^ NXNX:XmXsXmXJXmXbXUX:XMXLXtXHXGXGX>XGXGXmX@X( +X$XZ.W S =.3XjXeX|._ F 1 X + +   % D.*X",
"MX3Xr.N x x l n X...-.t./.lXqX3Xf.a.jXfXn.N.KXaXmXJX,XUX:X.XKX[.=XHX@XSXGXGXAXGXsXmX` XX#X7X^ ) uXyX5Xq.s a p 8 = 1 X > ; H .X.X",
"jXnXgX^._.i.9.| +...{ o.$.l.gXVXkXm.N.pXNXoXpXKXmXUX-XIX.X) $X_ '  X` -XtX,XSXSXGX@X:XmX:X) n.7XyX|.! ; > o : 1 ;.-.a.P.S.m.eX X",
"(.lX0XxXvXlX`.).CXT.u.8.a } $.W.BXMX XXXpXkXpXhXSXUXSX'.aXoX%XaXdX>Xb.$X2.SXSXSXdXdXdX;X]..XbX4Xd.R H & K #.C.6XgXZ.rX3XE.P.Y.R.",
"| 8.f.rXBXL.k.U.rXMX(.`.i.y.L L V.MXIXbXNXkXkXmXSXDX1X1X:XdXpXJXdXFXpXoX[.-XSXtXFX>XdX*XFXNX7XH & D ~ g./.fXeX#XB.x. X6XM.i 1 ; ",
"k u $.cXlX .b ..V.yXvX`.)._.W.V.W V.$XbXdXdX,XGXSXuX|.uXbXKXsXJXNXdXJX$X-X X-XSXdX>X*XUX.X}.^ R g.m.gXcXI.gX X( H 5 Q 6X2X1 . . ",
"V x q.VX0X7 O < Z.mX/.8.K.K.BXiXL.>.a.+XKXLXLXLXyX#XN.MXnXKX,X.XpXpXNXJXMX[.[.JXFXFXUX*Xb.H ,.Z.7XgXS.a.K Y.uXR % ; U 8X2X4 = o ",
"j x y.ZX/.l h O 7XNXS.m +.+.L.iXCXT.j.g.:XJXUXLX:XoX7XnXMXyXeXd.S.hXyXHXyX#X[.sXAXLX*X]./ S.Y.8XB.<.S 3 % l.PX2.t 9 i U.2XD = . ",
"h h u.cXG.c h N gXbXw.a C { L.DXxXvX(.C.N.aXLXAXmX$XKXeXHXeXhXa.D.kXMXmX-XmXsXdXFXAX*X4.4XY.5X2X3X:.& ; 9 o.7XOX%   > k.6X3.= + ",
"j h /./.9.x j p.ZXkXf s b -.8XBXL.W.).lX+XmXUXJXJXbXMXMXHXuXB.*.q.A.MXmXeXsXJXdXFXFXaXNXR.g.%.L.qXV.S 6 9 9 OX8XK o o t.9X2.= + ",
"c k ^.cX9.x c K.(.k.9 n +.W.CXgX+.d X.^.VXbXFXGXaX$X@XNX8XOX%.U Y I 3XbXJX}.>X*X*XdXNXOXd.i 1 F 5X5X<.1     C.Y.0.  . r.9X1.> o ",
"V M wXQ.B k | )./.7.# 0 a.CXU.e.z n 8 ;.9XMXyXJXmXoXpX~.cXY.B.9XE.k.4X4XNX}.].FXdXpX+Xd.S 2 1 1 ;.Y.BXU   o 0.I.C.% 9 m Y.2X= o ",
"l M T.wXB r y.vX`.r @ @ E.vXK.M x z b L.CXPXNXbXmXNXS.^ w.E.2X<.U Y./.n.c.dXFX*XaXkXkXS.%.U 2 . 8 M.9Xm.% o a I.Y.3 o f Y.Y.> - ",
"v ..T.wXn 0 P.xXJ.Z # Z lXxX+.x k v G.wXT.h.P.fXmXKXoX7XC.lXY.F >.zXC.S._ >XLXGX+X6.a.^.3X%.3 $ % ;.Y.5Xf   % H.4X!   a Y.3X3 9 ",
"a -.T.W.w d xX8Xu.r Z `.Q.W.w l v y.zXzXy.d o.C.nXHX=X#XP H E.lXR.A.t d.b.FXLX%Xd.t ; j.lXL.@.6 = & f.gXH.% % g.3Xm.$ y E.5Xi - ",
"q e.R.k.t s CXwXf r u.`.!.[ e u G.).!.p.B 0 q o.6XHXSXLXnX5XzXT j.gX/.NXaX%XNXXXt % > y r.lXR.I 4 $ L H.(.K & ^ 6X4X& 5 3X8Xa > ",
": 0./.w.t $.iXY.t 7.(.(.p.l q $.0XzXp.z V V e [ M.SXUXSX#Xd.u.a t.a.d.oXKXaXpXE 4 ; > = i j.5XY.U * ; y.E.m.4 4 Z.hXY 4  X3XT   ",
"< X.~.#.J h.wXL.a l.8XQ.z c o.U.E.F.n O k V O.G.vX8XeXHXMXB.0.X.w.T b.bXIX%XkX^.q.p , , - a g.nXs.K o f M.rXQ A x.7Xa.& |.6X#.  ",
"- X.~.^ U T.9X-.w.k.BX=.C V J.zXU...e < z p.!.).U.P.OXMXMX#X@.0.a.a.NXMXhXn.S./.vXj.{ 7 > 3 &.Z.jXw.9   f.nXx.D d.4XB.& 2.3X$.  ",
"7 j.k.P @.M.0XI q.kXR.@.7 G.(.(.m q q m G.)._.`.e.J @.BXeXnXN._ N.OXMXMX3XD S @.W.!.(.e.t 3 J @.5XA.! % E jX4XR P 3X5X5 :.5Xa.> ",
"S j.M.U *.C.h.W U.E.h.K -.W.(.y.q z O.!.zXJ.9.Z x , ..Y.CX7XZ.z.b.eXjX4X*.8 p a i e.I.^.r.3 3 8 f.gXZ.H & m.4Xd.D R.Y.H >.Y.f.4 ",
"U a.f.S s.P.&.&.gXh.#.U E.lXh.b b +.!.CXE.e.r # h # l =.xXjX~.5.XXNXgXH.q O O o 9 9 l.S.R.L.F 7 U C.VXa.A ^ A.+XD S.OX~ >.B.V.J ",
"F <.x.H B.Z.~ m.4Xf.I h.(.^.} i -.!.vXH.#.f r # h c +.1.xXjXfXD.aXmXhX(.O.k @ O 9 f % Y Y.lXT.U 4 I jXZ.>.H N.nX^ ) 7Xx._ OXB.E ",
"R <.x.R N.N.Q R.Z.g.a.(.^.j.i X.`.(.J.} , e M M +._.xXBXrXMXyXMXHXtX-XyXCX9XL...} , 7 = U E.I.R.W 4 &.gXA.E ) hXN.R bXoXQ 7XOXQ ",
"R ` v.( b.z._ +Xn.s.R.R.H. .r.U._.u.o.d d { G.!.Q.vXM.V.<.rXyXMXyXnX X,.N.B.gX0XF.-., 3 ; t k.lXh.I 4 fXZ.n.^ %XbX( :X$X( $X@X_ ",
"' 2.}.' v.) 2.oX,.s.4Xk.q.q.(._.i.N q Y 1.P.E.).K.9.b , i g.jXpXpXkXs.3 5 7 ..W.zXh.a.! 3 3 u j.R.k.P :.N.4X,.v.aX}.{.sXc.;X,X}.",
"c.2.}.2.}.` [.[._ b.A.C.Y I.).J.n v ..h.xXCXI.8.0 O v , i #.kXpXfXfXP s v < X b r.I.gXR.#.3 3 i H.gXg.& C.$X@X_ =XsXc.mX>X=X,X:X",
"c.' c.}.c.}.{.z.z.oXN.~ g.(.U.L =.j.W.vX/.8.m l e z < d L ! S.NXNXn.P : - O @ e w f a.fXcXM.I 1 J P.cX~ R 7X$X` =X:X<X>X,X<X=X;X",
"c.' 4.}.4.}.{.c.|.$Xd.m.kXP.I @.1.9XvXJ.o.r 0 w q M O.G.P.5XnXrXmXbXZ.j.-.+.l o - - 9 P g.5XM.%.6 Y S.VX_ v.$X=X-X;X&X=X<X;X;X,X",
"c.' ' c.4.}.{.{.@XN.v.+XfX! K g.nXqXj.n @ 0 ..-.W.wX0XlXqX8XSXuXPXMXrX9XjX5XP.y.u y > : Y M.3XZ.! & ~ 4XjX( -XmX<X,XAXAXaX;X;X=X",
"2.4.c.c.' ].{. X[.c.eXZ.&.E P.gXgXa.s f 7.i.!.0X0X0Xk.j.*.~  XHX6X,.<.:.f.P.0XzX(.J.e.L ; 6 ~ fXR.g.4 _ 7X$X[.,X>X-X,X<X=X=X=X.X",
") z.2.4.' }.}.{.[.-X|.|.H R.jXR.X.m ..C.VXVX9XW.-.B V x w 9 6.pXkXw.f u l < < { H.R.fXR.&.5 3 s ^.S.m.A #X:X-X=XtX>X<X-X.X;XbX:X",
"( ) ) ) c.}.}.{.@XoX XR NXZ.Z.#.+.J.zXlXR.x.%.U b O + h l d a.~.l.6.9 w z O < n ; Y n.A.hXI.$.3 E g.jXz.G :XtX-X,X>XmXtX@X:X:Xb.",
"R ^ ( ( 2.c.2.{.@X,X( oXOXhX! s.9XxX/.y.f u p L p 8 q | 0.a.3XyXkXS.a.$.} d < , q t 3 K q.R.4XZ.W Q 7XOX,.2.tX<X1X.X>X:Xc.b.z.R ",
"R Q R ( 2.c.'.{. X[.:X#X+X:.m.nXPX|.Y d 0 r +.G.F.Q.(.).E.5XyXSXeXbX8X5XQ.U.J.p.o.q > > D E m.nXOX>.R bXmX X@XSXGX-X:X.X` z.N.4."
};
