/* XPM */
static char *_d0534b2bd774b7bdd158e9157b33bdc[] = {
/* columns g_rows colors chars-per-pixel */
"64 64 39 1 ",
"  c #8DADB6",
". c #90AFB8",
"X c #95B3BC",
"o c #99B6BE",
"O c #9AB7C0",
"+ c #9DBAC2",
"@ c #A2BEC5",
"# c #A4BFC8",
"$ c #A4C0C7",
"% c #A6C1C9",
"& c #ABC5CC",
"* c #AEC8CF",
"= c #B1C9CF",
"- c #AFC9D0",
"; c #B4CCD3",
": c #B8CFD5",
"> c #B7D0D6",
", c #BAD1D7",
"< c #BDD3D9",
"1 c #C1D6DC",
"2 c #C5D9DE",
"3 c #CADBDF",
"4 c #C7DAE0",
"5 c #CBDDE2",
"6 c #CEE0E5",
"7 c #D1E2E6",
"8 c #D5E5E9",
"9 c #D8E7EB",
"0 c #DCEAED",
"q c #DFECF0",
"w c #E0ECEF",
"e c #E3EEF1",
"r c #E6F0F3",
"t c #EBF3F5",
"y c #EFF6F8",
"u c #F0F6F7",
"i c #F1F7F8",
"p c #F4F9FA",
"a c #FAFCFD",
/* pixels */
"8756085111116ew808q080e76095475657797975600058w0888077qrq0086eq8",
"61453611:1138ww960e60074754455776700eq557y67898000w0808rrw868800",
"55211,1::138rw88qr99tt655554557q77eat0756ew89e00000tur0r0ry08800",
"7052452:1547w65wq68epr95554659q0950qe050866507680t80pt8tty888880",
"t953565315876668908rt90975580qq94596555q86350166008taa88iq6667qr",
"a73557585555w6779qry688005708085689779q555865466778rur00pq076708",
"wr7378554115788ee89978467q07570988077785778e856680000trpyq886899",
"5755w0780649we8088068<16qpe00q0756877ttr845r00tr0paptrpaire08qqq",
"q8246660058909w90t86<118rr00qe8q969rppar066wrrrpypapyrayrre868q0",
"q086766780e80ww7w04<<660988eqqrqrqrpt00666880rrrytqrr0q87r08q0ee",
"qyr8889rrte87858r0628708698qrrerytpat622668q00rtt8798869rpyerq0q",
"008qtrtrrre8ewwet87qrryrqrreqqetyyapt7626676417tr88qr98erqy08etq",
"0760tqq99tpprriy68rrtp08qerrtrtt080pr086265<<12267rr88868890q90q",
"8688qyr0rprrtte87rprrut0qq6iaeqq0666806616<,14250pt88766669ee980",
"q0q0rpypppyrr0ee336625rtr8696668066>>28e8070000uap00416778tt0q09",
"9q0epppapr878eiy2878312648q<42661<;<<<<670tatrr00032647868qq98eq",
"860ere0r54:1eue7590946458e86<662164664644185664>25350770e07eqqqt",
"<66<<>-6:<<quqtr7e799089q689876210e970<41>>145941<42750q0q0q0eer",
"<8<->>6<<7tyapuu07549tt<70768eq6666447><4>-<454>:<227000907767qr",
"<6<>>2667rpputee079q9re008780qtte4<46784>;-<1761<7wte05805009<40",
"13=@;00tt90qq567790e7epp66qayyrrae4<4466><1<<4662478872565700969",
"1&$=7aar9eept09e957qq85069yaaittr666689611414586454274<578676456",
"538tput77eeppt00q0q9447568ery0pa81228qq0666895142<156<,288688596",
",50tutpttutyt0q0etq75657670eteiar4<<4yyqq08654455<wr87796e067666",
"3808uaaptw79teeee769686<490yy9qtq4<44yr0te075557q9er8408eiq68744",
"57wttttpt95570e7777764668errt8qr818840yrwww92145880q7558reyterq8",
"3<70rww008et00q0q4158600erty08qe7706r06677578075799r955148etpytq",
"37wtt08659euuprte99q0qeqeqrtr8eqeq860r000w9700etpt688094qqteryr7",
"0typtrtr50ue0w0trpyrq8470q080rrrt8000ttrt97770qeyy6950t40qtaaarr",
"rwutr0w00ew6555q9qqqre0qq08reerytwe0r0087905565780qq07e517ep0qry",
"trrtr86527rw07759944876qe00rrrerrewr876557tr65467r9r00r96rtu0ty8",
"8r088256427tu05545684<4466688087653608809800q7re7058e08tutate0e8",
"4w85757555559tw406,86256289665>6877271164495<e71550e90t80erwww08",
"13676154415877rt72,>2222678566<2552511157eqe70<470eq7895<8ir9074",
"::8741::1545645rt2>&>66668w64665<1,<6,1150rpe144<556545755097884",
";#4441121:1775450r>>,42388886555<511065,488578574577455558085575",
"##161:##=#,7575416w*<226964w713214668008745q85994475555088088545",
";:11;##;;#1545552<2t<<66466qr7<34580w805<<8q7557448554478858955<",
"#14:=@#;:1114,<522;7r*44668wr62,561<4,<<44<54y044455455055579444",
"141:;;;;##121141,51;08,22,6we65>>;;1<16245,&4r0,>45<4777554450>1",
":1;&=:<&##455474::55-701<696,8657<>7wt68755,<>44454<466544>54881",
"===&::::#<44455<<&<55;e93652*><5<<4678386180:-<7<545448954;1<>;5",
":#@&1<<:#;><44<;<<:>#15t53<<42*;;-;42085680<:<<47544<18544;--;#&",
"1:o#::::-##<5544<<;&&=6rr,<7rw678<16568595;$-;:<7555<5564<&-&-&&",
"&&@&<,1,-&&>,444<2<;&;&6p9==<15rt<22-626:53&&=;<64454<<<>&--><-#",
"++@-<<1,1-;<;<<<<<<;&5&:rp,,>255622<,8,<:27<$&&<7508<>44;&-%-5>#",
"@@@#<&,44,<;<5-;-,1;&<&;5rw9tt70r603$>;,221<%;;<1775<<44;$O%&-<>",
"&;-+@:&-4<4451---;;;&;;&1<ue2258887,<>$&25592541,4<194<5;-;#->;:",
"&<;+o$*,&,216,>;&>,1<1>,<;,y1=,771w18w31&77079r74<11:-;1<:+-4,>>",
";&@@$$&>,21=,>,;><1>>>*,;*&99<1218u31339313ru397074>-;-41:#:44<4",
"&OO&%%-&><<*;<,:,<>*>>*<3,*=w<<=;33133991331779772,41,:2,>->4,,1",
"@o+@o%*-&&>>;<;:,>&%=&%&1<&%1w1==11313w91+=$=7335147<<:<:<&-&<14",
"@OXo@+$%&-%>:;&,<%%*,*&%&<;$&9::71%;13303@#&&w=31171,:-411:-<588",
"++XXO$&&;:;#-<<<=$%<,**&&;=&o79%;3@111113111391=<41<<-<2:<:14580",
"+o+X@;-;;&&++-<<=%%*=$oo*;77==t1=:==&==111=$=1711<;,4<,1-,1e7980",
"+@$$+*;*&%&+#&->%o$,$.X$17rwr;30$&1:=1$+$@111111&;&::11518800780",
"X@**&;&&&;%%&*%;=$$=%+X:377rt9=8=:,1:=&%$117=1=11$1=173960t597w7",
"o$o$=,;=*&+&;*&&%@o@@o+2w9011r371%11,:=&&11o@@&1=1=#381@68522763",
"%%oo%&=&<&o&&%@@@+@+@o393;:*1w333,w03*,%&13@=&11&1131+=11:&::&&=",
"%%$+%@+=*XX*:@%-%$%&+:37=;<6,ww3w33;=13:111o@@@&@$===311=##;1=@#",
"%%++#%o#OX++@+@;&+$%@+371133:3w883%=$%&&=1$@=$$=$o+$@11&#@+==:1=",
"$+XoXo+&X++XOo+&=%@oo+39=131133377+&+oo%&$$++o$@Xo$.$1&$=o@=#;:8",
"++X Xo&&@&@XO+$&&++@@331;;1:=:1:&1=X+X+&@+XoX Xo.o+@1$$1#@@++&#;",
"ooXo@o&,;@+$+@$%&=$X;71;=111:11=@@8++o$X@XXX$@ =o@@3=X$1==&#+#=+"
};
