/* XPM */
static char *_dfae5c0b7ba43d7b6b2975d585362c8[] = {
/* columns g_rows colors chars-per-pixel */
"64 64 87 1 ",
"  c #A2A2A2",
". c #A3A3A3",
"X c #A7A7A7",
"o c #AAAAAA",
"O c #ABABAB",
"+ c #ACACAC",
"@ c #ADADAD",
"# c #B0B0B0",
"$ c #B1B1B1",
"% c #B2B2B2",
"& c #B3B3B3",
"* c #B4B4B4",
"= c #B5B5B5",
"- c #B6B6B6",
"; c #B7B7B7",
": c #B8B8B8",
"> c #B9B9B9",
", c #BABABA",
"< c #BBBBBB",
"1 c #BCBCBC",
"2 c #BDBDBD",
"3 c #BEBEBE",
"4 c #BFBFBF",
"5 c #C0C0C0",
"6 c #C1C1C1",
"7 c #C2C2C2",
"8 c #C3C3C3",
"9 c #C4C4C4",
"0 c #C5C5C5",
"q c #C6C6C6",
"w c #C7C7C7",
"e c #C8C8C8",
"r c #C9C9C9",
"t c #CACACA",
"y c #CBCBCB",
"u c #CCCCCC",
"i c #CDCDCD",
"p c #CECECE",
"a c #CFCFCF",
"s c #D0D0D0",
"d c #D1D1D1",
"f c #D2D2D2",
"g c #D3D3D3",
"h c #D4D4D4",
"j c #D5D5D5",
"k c #D6D6D6",
"l c #D7D7D7",
"z c #D8D8D8",
"x c #D9D9D9",
"c c #DADADA",
"v c #DBDBDB",
"b c #DCDCDC",
"n c #DDDDDD",
"m c #DEDEDE",
"M c #DFDFDF",
"N c #E0E0E0",
"B c #E1E1E1",
"V c #E2E2E2",
"C c #E3E3E3",
"Z c #E4E4E4",
"A c #E5E5E5",
"S c #E6E6E6",
"D c #E7E7E7",
"F c #E8E8E8",
"G c #E9E9E9",
"H c #EAEAEA",
"J c #EBEBEB",
"K c #ECECEC",
"L c #EDEDED",
"P c #EEEEEE",
"I c #EFEFEF",
"U c #F0F0F0",
"Y c #F1F1F1",
"T c #F2F2F2",
"R c #F3F3F3",
"E c #F4F4F4",
"W c #F5F5F5",
"Q c #F6F6F6",
"! c #F7F7F7",
"~ c #F8F8F8",
"^ c #F9F9F9",
"/ c #FAFAFA",
"( c #FBFBFB",
") c #FCFCFC",
"_ c #FDFDFD",
"` c #FEFEFE",
"' c #FFFFFF",
/* pixels */
"((((()GCYYYYWYc0)))))))))))Po7PYYYYY)CMkY)))(W((WYYWWW(((WWY((((",
"()()(PP((((WWYG4W))))))())))a=cWW(W(PMcZ)))))(W((WWW((((W(WW(W((",
")))WP(((((W((WWkM))))))())))(4kGWW(WCCC))((((((((())((()((((((((",
"))GcWW((WWWYYWWZd)))))))())))MdYW(WPGC))WW()((WW(((W()))(YWW((((",
")ZaPY(((((W(WWYYtY)))))(()))))aZWWZCdW)()))))WZY(((((()))YMMW)))",
"MaPYW((((((WWWWWkc))))))))))()GtYPZaW))))))))YMY(WW((())))Cdk)))",
"dPWWWW((W(W((WYYGa))))))))))(()MCWcP)))))))))WkZ(WW(()))))(ckc)c",
"GYW((((((((((WWWYkZ))))))))))))WMGG))))))))))YtC)((()))))))ZCcdk",
"P(W(W(((((((WWWWYPkW))))))(YGZMCGP(()))))))))P0M)W(())))))))CPPG",
"(W(W(W(((())((((W(PMCCMCMkdaadMG(W())))))))))Z0M)(()))))))))YGPG",
"(WW((W((((WWWWW((W(WGGZZCCCCZPPW((W()))))()()GtM))(())))))))YPPW",
"(((((((WYYYPW(WWWWGZYWWWWYYW()(((PPZ)))))(())Z=d)))()))())))GGZ(",
"(((((((((YYYW(W(WPd())))))))))(((YcCC))))()))C&a)))((W(())))CcM(",
"((W())((((YGYWYPWkZ)))))))))))))))CMMP)(W()))M&a))((WW(())))ccC)",
"))))))(((WWWW(WMZa)))))))))))))))))cCk())))))M+0)WYW(())))))cMZ)",
"CZGYYW(((())))GctG)))))))))))))))))Wkcc))))))MX0)(W()))))))WcYMC",
"kcMcMCZGZCCCCCck7)))))))))))))))))))CkaP)))))M t)((())())))MZGck",
"CCGPGYWWWYPPPZPtc))))))))))))))))))))dkt)))))cXt)(W()))())CGGZPZ",
")(WYYYWWW((((YPa0))))))))))))))))))))Waac))))c 0)(()))))PCPWY)))",
"((WWWWWWW(((YYGM&Z))))))))))))))))))))Mt7P)))kX7))WYGZCcMYWP))))",
"(W(()))))((WWYYCt<)))))))))))))))))))))t4477==d<477tdkccZPPP)))(",
"W(((((()((W(WYPGC<d(WWWWYWWWWWWYW(W(W()G7d4=<0kCt0adddcCCCPP))((",
"((((((((((W((YYPGC044tkcckdt000ttat7<=&4dkMCZ7a00CCGP()))(P(((((",
"))((((((((WWWWWYPGMtakCCMcdat0ttaa044<=<tc)Pt74M))))))))))GWY(((",
"))))()(((WWWWWWYYGaYWWWWWWWYYPGPPYYW(()Y+0Wt7a()))))))))))PGZY()",
")))))((((YYYYWWYYMM))))))))))))(((((WW()<<t0k)))))))))))))PP((()",
"))))(((((WWYWWWWYMP)))))))))))))))))))))0aMk))))))))))))))(W))()",
")())((((WWWWWWYWYM()))))))))))))))))))))t0k())))))))))))))(())))",
"))PGWYYPPGPPYYYYGM))))(())))))))))))))))4&C)(((())))))))))W(()))",
")))YCGYPPPPYYYGPPMcY))W()))))))))))))))Yo<P)((()))))))))))((()))",
"))))(ZMPYPPYYGPCCYGcZ()(W()))))))(PCa4=+7tW((())))))))))))WW()))",
"))))))GkCPYYPPCMWYW(GdZ)))))))Zk0744<<40adW((W))))))))))))WYY)))",
"))))))))CcGYYZC)WWW((YaaW))Ya7acCCMkdkZYkcY)(((())))))))))(PW())",
")))))))))YMPPZ)WWW()(YYk4ka4aMPYYZZPWYP(CGP)((())))))))))))Y(())",
"))))))))))YPW(WYW())WYPPCa0acZPYW(((((WYZPY((((()))))))))))W(())",
"))))))))))GGW((W(()((YYGZdkPW(((W(W(W(((ZW(W(W(()))))))))))YG())",
"))))))))))CCP(Y(W(((WYYGk7)))))((((((W)YZYG((()()))))))))))PCP))",
"))))))))))cGP(WW(W((WYYC0a))(())(((((()CMkCaGGW))))))))))))WMZ()",
")))))))))WMGY(WW((((WYPZ7C))(())((((((PCdG)GtccG)))))))))))(CZY)",
")))))))))YMPWW(((((((WPG0Y))()))((((W(PGc)))WdkcC())))))))))CZG)",
")))))))))PZP(W(((())(WYGd))))))(()))(((GP)))))McckY)))))))))GCC(",
")))))))))GPWWWW(()))(W(ZC)))))((W)))(PPGY))))))PcMkM))))))))WMMY",
")))))))))ZWW(((()))((W(CY))))))())))PZCYY())))))WMMccP))))))(CCZ",
"))))))))(Z(())(((W((((YM)))))))())))Y)ZW)(()))))))PkdaaP)))))GZM",
"()))))))YCY())(WWWWWWWZZ)))))WW(YY((YYCPW)))))))))))Mt74aY)()PCM",
"CWWW))))ZCP())((((((WYMW)))WGYYZP))W(YMPY))))))))))))PkadtM())cG",
"GZCMccMCCGP)()))(((((PC)))ZMPPGW)(((((GYP)))))))))))W()GMGMdZCZW",
"YWPGZCCZYYG(()))((WWWZY)ZMGPGY))((((((WWG)))))))))))W(()(GPPCGPP",
"((WYPGZZCZYY)))(())YWZZCGYPP()(WW(((((WWG)))))))))))(W((W(YWWYY(",
"())))))))GZ(())()))PWYYWWY())W((((((((((G))))()()))(((W(WYWWWW((",
")((())))))(()))(()YP)(WY()((((W()((((W(WW()))))))))()(W(((((((((",
")((())))))))))))(WY(W(W((W((((W(((((((((WW)((())))((WWW(()()((((",
"(((())))))))(PWWWWWYGW(WW((((WW((((W(WWWYG)))))(WYPPYWW((())W(W(",
"(()))))))))))PGGdttkZZG(((((((W(W((WWWW(WC)))WYPYW((W(W(()))((((",
"((())))))))))YcacPYk7dCZPWWPGGPYYYYYYWWWWCGZCP()))))))))))))()((",
"((())))))))))Ztk))))YdtZPPZCckMMZCCCZZZZPPMMCY))))))))(())))))))",
")))))))))))))M0M))))))ZtGkMcdkkkkddaadaaaCZkGW))))(())((()))))))",
"))(())))))))Wc7G)))))))dddY)))))))))))))GadP(W)))(((()((()))))))",
"))()))))))))Zc7()))))))(4ta)))()))))WWWWPaaG(W)))(((()(((())))))",
"))(W()))))))GCt)))))))))M&4P)))())))((((YdcM)W)))(()))(((())))))",
"WWYW))))(()MZkc))))))))))<&0)((()))(()()kkGdM)))))(((W((((((((WY",
"W(W))))))(kcPkt))))))))))Po=C)(()((()()G0McZkZ))))(((WWWW(WWWYYY",
"(WW)))))(dMPPG<G))))))))))ao7W(())((()WaccWMPZG))))))((W((WWYW((",
"(((()))WkZYYPPtd)))))))))((&&kYYWWWW((kMc()(PWYYYYYYW(W((((YW(W("
};
